<?xml version="1.0" encoding="UTF-8"?>
<svg id="Layer_1" xmlns="http://www.w3.org/2000/svg" version="1.1" viewBox="0 0 60.02 60.02">
  <!-- Generator: Adobe Illustrator 29.1.0, SVG Export Plug-In . SVG Version: 2.1.0 Build 142)  -->
  <defs>
    <style>
      .st0 {
        fill: none;
      }
    </style>
  </defs>
  <g>
    <path d="M29.67,53.86c-5.23,0-10.42-2.1-13.91-5.8-4.53-4.79-6-12.01-3.66-17.97,2.4-6.1,9.62-10.78,16.11-10.42.41.02.73.38.71.79-.02.41-.39.74-.79.71-5.78-.31-12.5,4.02-14.64,9.48-2.13,5.42-.78,12.01,3.36,16.39,3.97,4.21,10.35,6.16,16.25,4.99,5.74-1.15,10.86-5.07,13.7-10.48.97-1.85,1.32-3.32,1.1-4.63-.23-1.36-1.39-2.73-2.8-2.65-1.07.07-2.02.92-3.02,1.82-1.26,1.13-2.69,2.41-4.55,2-1.2-.26-2.08-1.34-2.24-2.74-.16-1.4.46-2.65,1.58-3.17.38-.17.82-.01,1,.36.18.38.01.82-.36,1-.64.3-.79,1.07-.72,1.64.06.57.38,1.29,1.06,1.44,1.12.24,2.1-.63,3.23-1.65,1.09-.98,2.33-2.09,3.92-2.2,2.28-.18,4.04,1.9,4.38,3.9.28,1.64-.12,3.41-1.25,5.57-3.05,5.81-8.56,10.02-14.74,11.26-1.23.25-2.48.37-3.73.37Z"/>
    <path d="M39.49,30.75c-.21,0-.41-.08-.56-.25-.27-.31-.25-.78.06-1.06,1.24-1.1,2.01-2.03,2.48-3.02.57-1.18.66-2.48.24-3.47-.46-1.07-1.58-1.95-3.01-2.36-.97-.28-3.3-.41-6.4-.36-.4.05-.75-.32-.76-.74,0-.41.32-.75.74-.76,1.9-.03,5.32-.02,6.84.42,1.89.54,3.34,1.71,3.98,3.21.6,1.4.5,3.12-.27,4.71-.73,1.5-1.9,2.65-2.84,3.49-.14.13-.32.19-.5.19Z"/>
    <path d="M42.48,35.36c-.25,0-.49-.12-.64-.35-4.32-6.91-8.82-13.42-13.76-19.91-.25-.33-.19-.8.14-1.05.33-.25.8-.19,1.05.14,4.96,6.52,9.49,13.07,13.83,20.02.22.35.11.81-.24,1.03-.12.08-.26.11-.4.11Z"/>
    <path d="M40.49,37.08c-.23,0-.46-.11-.61-.31-4.73-6.6-9.82-13.06-15.12-19.2-.27-.31-.24-.79.08-1.06.31-.27.79-.24,1.06.08,5.34,6.17,10.45,12.67,15.21,19.31.24.34.16.8-.17,1.05-.13.09-.29.14-.44.14Z"/>
    <path d="M24.76,17.54c-.52,0-1.05-.07-1.57-.23-.95-.28-1.66-.59-2.23-.98-1.3-.88-2.13-2.15-2.27-3.48-.09-.84.09-1.61.27-2.36.1-.45.2-.87.24-1.28.12-1.36-.46-2.64-1.59-3.51-.27-.21-.36-.56-.24-.87.12-.31.44-.5.77-.47,1.82.19,3.69.38,5.5.95,2.08.66,3.76,1.75,4.86,3.17,1.35,1.74,1.76,3.98,1.07,5.83-.14.38-.33.75-.56,1.09-.93,1.35-2.54,2.13-4.24,2.13ZM19.93,6.08c.59.97.86,2.1.76,3.27-.05.52-.16,1.01-.27,1.49-.15.66-.3,1.28-.24,1.86.09.88.7,1.77,1.61,2.39.44.3,1.02.55,1.82.78h0c1.59.47,3.3-.07,4.15-1.31.16-.24.3-.49.4-.76.5-1.35.17-3.08-.85-4.4-1.14-1.48-2.87-2.26-4.12-2.66-1.04-.33-2.14-.52-3.25-.67Z"/>
    <path d="M49.34,48.04c-.3,0-.6-.05-.89-.17-.85-.34-1.42-1.06-1.77-1.58-.1-.15-.2-.3-.29-.45-.24-.38-.47-.74-.75-1.03-.29-.29-.29-.77,0-1.06.3-.29.77-.29,1.06,0,.39.4.68.84.95,1.27.09.14.18.28.27.42.38.56.72.88,1.07,1.02.32.12.71.06.84-.14.15-.23.05-.7-.27-1.31-.6-1.13-1.17-2.04-2.17-3.1-.28-.3-.27-.78.03-1.06s.78-.27,1.06.03c1.11,1.18,1.74,2.19,2.4,3.43.23.43.91,1.72.21,2.82-.37.57-1.05.9-1.77.9Z"/>
    <path d="M23.97,32.39c-.18,0-.36-.01-.55-.04-.51-.07-1-.26-1.42-.53h0c-1.4-.92-2.04-2.48-1.59-3.88.42-1.3,1.62-2.08,3.18-2,1.59.07,3.11,1.05,3.61,2.34.24.62.46,1.86-.82,3.15-.62.62-1.5.96-2.42.96ZM23.42,27.43c-.79,0-1.38.36-1.57.97-.2.62.03,1.54.98,2.16h0c.24.16.52.26.81.3.64.09,1.28-.1,1.68-.5.52-.52.68-1.04.49-1.55-.29-.74-1.29-1.34-2.28-1.39-.04,0-.08,0-.12,0Z"/>
    <path d="M19.55,39.99c-.18,0-.36-.01-.55-.04-.51-.08-1-.26-1.42-.53h0c-1.4-.92-2.04-2.48-1.59-3.88.42-1.3,1.62-2.09,3.18-2,1.59.07,3.11,1.05,3.61,2.34.24.62.46,1.86-.82,3.15-.62.62-1.49.97-2.42.97ZM18.41,38.17c.23.15.52.26.82.3.63.09,1.28-.1,1.68-.5.52-.52.68-1.04.49-1.55-.29-.73-1.29-1.34-2.28-1.39-.86-.02-1.49.32-1.69.97-.2.62.03,1.54.99,2.17h0Z"/>
    <path d="M22.36,47.58c-.18,0-.36-.01-.55-.04-.51-.08-1-.26-1.42-.53h0c-1.4-.92-2.04-2.48-1.59-3.88.42-1.3,1.63-2.09,3.18-2,1.59.07,3.11,1.05,3.61,2.34.24.62.46,1.86-.82,3.15-.62.62-1.49.97-2.42.97ZM21.22,45.75c.23.15.52.26.82.3.63.09,1.28-.1,1.68-.5.52-.52.68-1.04.49-1.55-.29-.73-1.29-1.34-2.28-1.38-.85-.03-1.49.33-1.69.97-.2.62.03,1.54.99,2.17h0Z"/>
    <path d="M30.37,49.15c-.18,0-.36-.01-.54-.04-.51-.08-1-.26-1.42-.53,0,0,0,0,0,0-1.4-.92-2.04-2.48-1.59-3.88.42-1.3,1.63-2.07,3.18-2,1.59.07,3.11,1.05,3.61,2.34.24.62.46,1.86-.82,3.15-.62.62-1.5.96-2.42.96ZM29.23,47.32c.24.15.52.26.82.3.64.09,1.28-.1,1.68-.5.52-.52.68-1.04.49-1.55-.29-.74-1.29-1.34-2.28-1.39-.85-.03-1.49.33-1.69.97-.2.62.03,1.54.98,2.16Z"/>
    <path d="M38.53,46.67c-.18,0-.36-.01-.54-.04-.51-.08-1-.26-1.42-.53h0c-1.4-.92-2.04-2.48-1.59-3.88.42-1.3,1.63-2.09,3.18-2,1.59.07,3.11,1.05,3.61,2.34.24.62.46,1.86-.82,3.15-.62.62-1.5.96-2.42.96ZM37.39,44.85c.23.15.52.26.82.3.64.09,1.28-.1,1.68-.5.52-.52.68-1.04.49-1.55-.29-.73-1.29-1.34-2.28-1.38-.86-.03-1.49.33-1.69.97-.2.62.03,1.54.99,2.17h0Z"/>
  </g>
  <circle class="st0" cx="30.01" cy="30.01" r="30.01"/>
</svg>