<?xml version="1.0" encoding="UTF-8"?>
<svg id="Layer_1" xmlns="http://www.w3.org/2000/svg" version="1.1" viewBox="0 0 60.02 60.02">
  <!-- Generator: Adobe Illustrator 29.1.0, SVG Export Plug-In . SVG Version: 2.1.0 Build 142)  -->
  <defs>
    <style>
      .st0 {
        fill: none;
      }
    </style>
  </defs>
  <circle class="st0" cx="30.01" cy="30.08" r="30.01"/>
  <g id="outline">
    <path d="M52.55,22.86l-11.63-14.69c-.21-.27-.57-.35-.88-.21l-17.01,7.86c-.24.11-.4.34-.42.61l-1.12,14.54-9.36-3.64c-.18-.07-.39-.07-.57.01-.18.08-.32.23-.39.41l-3.82,10.32c-.08.21-.05.45.07.64l6.6,10.58c.11.17.28.29.48.33l7.25,1.4s.09.01.14.01c.26,0,.5-.13.63-.36l3.49-5.89,11.33,2.7s0,0,0,0c.06.01.11.02.17.02.1,0,.2-.03.29-.07.01,0,.03,0,.04,0l6.01-2.99c.16-.08.28-.21.35-.38l8.46-20.48c.1-.24.06-.53-.1-.73ZM36.97,45.9l-10.44-2.49,4.5-18.85,10.44,2.49-4.5,18.85ZM13.26,29.34l7.76,3.02-3.74,5.92-4.02-8.95ZM23.94,18.13l5.74,5.77-4.11,17.21-2.7-9.13,1.07-13.85ZM30.37,22.52l-5.78-5.81,13.74-6.35-7.97,12.16ZM31.67,23.21l8.18-12.48,1.66,14.83-9.83-2.35ZM42.98,25.53l-1.62-14.45,9.39,11.87-7.78,2.58ZM11.93,29.94l4.02,8.95-6.91-1.13,2.89-7.81ZM9.52,39.31l7.15,1.17,3.97,8.84-5.55-1.08-5.57-8.93ZM21.98,48.72l-3.97-8.84,3.87-6.13,2.98,10.1-2.88,4.87ZM42.95,43.26l-4.36,2.17,4.38-18.36,7.72-2.56-7.74,18.75Z"/>
  </g>
</svg>