<?xml version="1.0" encoding="UTF-8"?>
<svg id="Layer_1" xmlns="http://www.w3.org/2000/svg" version="1.1" viewBox="0 0 180 180">
  <!-- Generator: Adobe Illustrator 29.1.0, SVG Export Plug-In . SVG Version: 2.1.0 Build 142)  -->
  <defs>
    <style>
      .st0 {
        fill: none;
      }

      .st1 {
        fill: #0f0f0f;
        stroke: #000000;
        stroke-miterlimit: 10;
        stroke-width: .25px;
      }

      .st2 {
        fill: #f9a15c;
      }

            svg:hover .st2 {
        fill: #ffc894;
      }
    </style>
  </defs>
  <circle class="st0" cx="-110" cy="89.37" r="81.5"/>
  <circle class="st1" cx="90" cy="89.37" r="81.5"/>
  <g id="Globe">
    <g>
      <path class="st2" d="M134.04,64.19c-2.35-8.78-7.39-16.35-14.57-21.9-10.25-7.93-23.31-10.55-35.82-7.2-3.13.84-6.1,2.02-8.87,3.5-8.32,4.45-14.86,11.65-18.55,20.64,0,0,0,0,0,.01-3.44,8.39-4.02,17.46-1.67,26.24,2.35,8.78,7.39,16.35,14.57,21.9,7.33,5.67,16.09,8.62,25.06,8.62,3.58,0,7.19-.47,10.76-1.43,3.13-.84,6.1-2.02,8.87-3.5,8.32-4.45,14.86-11.65,18.55-20.64,0,0,0,0,0-.01,3.44-8.39,4.02-17.46,1.67-26.24ZM126.31,94.17c-.08.13-.15.26-.23.39-.63,1.02-1.31,2-2.03,2.95-.11.14-.21.28-.32.42-.72.92-1.49,1.81-2.29,2.66-.13.14-.26.27-.39.41-.81.83-1.66,1.62-2.54,2.37-.14.12-.29.24-.44.36-.76.62-1.56,1.2-2.36,1.77,2.45-4.37,3.94-9.97,4.33-16.33,2.89.3,5.63.85,8.08,1.64-.01.03-.02.05-.04.08-.54,1.13-1.13,2.21-1.77,3.27ZM89.39,111.95c-.3-.04-.6-.08-.9-.13-.38-.06-.77-.12-1.15-.2-.3-.06-.6-.12-.9-.18-.37-.08-.75-.17-1.12-.26-.3-.07-.6-.15-.9-.23-.37-.1-.74-.21-1.1-.32-.3-.09-.59-.18-.89-.28-.36-.12-.72-.25-1.08-.39-.29-.11-.59-.22-.88-.33-.36-.14-.71-.29-1.06-.45-.29-.13-.57-.25-.86-.38-.35-.16-.69-.34-1.04-.51-.28-.14-.56-.28-.84-.43-.34-.18-.68-.38-1.01-.57-.27-.16-.55-.31-.82-.48-.34-.21-.67-.43-1.01-.65-.26-.17-.52-.33-.77-.51-.03-.02-.06-.04-.09-.07,1.72-1.91,3.82-3.75,6.17-5.45,3.52,5.32,7.62,9.44,11.94,12-.18-.01-.36-.03-.54-.05-.39-.04-.78-.08-1.17-.13ZM57.75,82.7c-1.48-6.83-1.02-13.81,1.33-20.38,2.85.95,6.02,1.6,9.37,1.93.03,4.76.67,9.84,1.92,15.07l-12.62,3.38ZM62.28,55.51c.08-.13.15-.26.23-.39.63-1.02,1.31-2,2.03-2.95.11-.14.21-.28.32-.42.72-.92,1.49-1.81,2.29-2.66.13-.14.26-.27.39-.41.81-.83,1.66-1.62,2.54-2.37.14-.12.29-.24.44-.36.76-.62,1.56-1.2,2.36-1.77-2.45,4.37-3.94,9.97-4.33,16.33-2.89-.3-5.63-.85-8.08-1.64.01-.03.02-.05.04-.08.54-1.13,1.13-2.21,1.77-3.27ZM100.11,37.87c.16.02.31.04.47.07.87.15,1.72.33,2.58.54.22.05.43.11.65.17.76.2,1.5.42,2.25.67.13.04.26.08.39.12.84.29,1.66.62,2.48.97.21.09.41.18.62.27.74.33,1.47.68,2.18,1.06.1.05.2.1.3.15.79.43,1.56.89,2.33,1.38.2.13.39.26.59.39.22.14.43.31.64.46-1.72,1.9-3.81,3.73-6.14,5.43-3.5-5.3-7.58-9.42-11.87-11.98.09,0,.19.02.28.03.76.07,1.51.16,2.26.28ZM130.84,66.99c1.48,6.83,1.02,13.81-1.33,20.38-2.85-.95-6.02-1.6-9.37-1.93-.03-4.76-.67-9.84-1.92-15.07l12.62-3.38ZM82.32,98.06c4.29-2.65,9.24-4.83,14.55-6.41l5.26,19.64c-6.73.67-14.06-4.52-19.81-13.23ZM116.37,85.18c-5.38-.15-11.15.48-16.87,1.86l-2.91-10.87,18.01-4.83c1.14,4.79,1.72,9.47,1.77,13.85ZM116.28,88.97c-.63,10.41-4.39,18.57-10.54,21.36l-5.26-19.64c5.38-1.28,10.77-1.87,15.8-1.72ZM95.62,72.55l-2.91-10.87c5.65-1.67,10.96-4.01,15.55-6.83,2.15,3.82,3.98,8.16,5.39,12.88l-18.02,4.83ZM86.46,38.39c.39-.04.77-.07,1.16-.07,6.4,0,13.24,5.08,18.67,13.29-4.29,2.65-9.25,4.84-14.57,6.42l-5.26-19.64ZM88.11,59c-5.38,1.28-10.77,1.87-15.8,1.72.63-10.41,4.39-18.57,10.54-21.36l5.26,19.64ZM72.22,64.48c.53.01,1.05.05,1.59.05,4.92,0,10.12-.67,15.28-1.91l2.92,10.9-18.01,4.83c-1.14-4.79-1.72-9.48-1.77-13.86ZM92.97,77.13l2.91,10.87c-5.65,1.67-10.95,4-15.54,6.83-2.15-3.82-3.99-8.16-5.39-12.88l18.01-4.83ZM129.87,63.37l-12.6,3.38c-1.52-5.16-3.53-9.87-5.88-14.02,2.73-1.96,5.15-4.11,7.14-6.35,5.32,4.52,9.2,10.33,11.34,16.99ZM58.72,86.31l12.62-3.38c1.52,5.16,3.52,9.87,5.88,14.01-2.74,1.96-5.16,4.11-7.16,6.36-5.32-4.52-9.2-10.33-11.34-16.99Z"/>
      <path class="st2" d="M116.74,129.08h-17.8l-4.49-5.61c4.11-.01,8.28-.55,12.43-1.66,1-.27,1.59-1.29,1.32-2.29s-1.29-1.59-2.29-1.32c-23.91,6.41-48.57-7.83-54.98-31.74-6.4-23.91,7.84-48.57,31.74-54.97,1-.27,1.59-1.29,1.32-2.29-.27-1-1.29-1.59-2.29-1.32-25.9,6.94-41.32,33.66-34.38,59.55,5.16,19.24,21.24,32.68,39.79,35.48l-4.94,6.17h-17.8c-5.16,0-9.35,4.19-9.35,9.35,0,1.03.84,1.87,1.87,1.87h67.33c1.03,0,1.87-.84,1.87-1.87,0-5.16-4.19-9.35-9.35-9.35ZM90.55,124.59l3.59,4.49h-7.18l3.59-4.49ZM59.08,136.56c.77-2.18,2.85-3.74,5.29-3.74h52.37c2.44,0,4.52,1.56,5.29,3.74h-62.95Z"/>
    </g>
  </g>
</svg>