<?xml version="1.0" encoding="UTF-8"?>
<svg id="Layer_1" xmlns="http://www.w3.org/2000/svg" version="1.1" viewBox="0 0 60.02 60.02">
  <!-- Generator: Adobe Illustrator 29.1.0, SVG Export Plug-In . SVG Version: 2.1.0 Build 142)  -->
  <defs>
    <style>
      .st0 {
        fill: none;
      }
    </style>
  </defs>
  <circle class="st0" cx="30.01" cy="30.01" r="30.01"/>
  <g id="Globe">
    <g>
      <path d="M48.57,19.3c-1.04-3.88-3.26-7.22-6.44-9.67-4.53-3.5-10.3-4.66-15.83-3.18-1.38.37-2.7.89-3.92,1.55-3.68,1.97-6.57,5.15-8.2,9.12,0,0,0,0,0,0-1.52,3.71-1.77,7.72-.74,11.59,1.04,3.88,3.26,7.22,6.44,9.67,3.24,2.5,7.11,3.81,11.07,3.81,1.58,0,3.18-.21,4.75-.63,1.38-.37,2.7-.89,3.92-1.55,3.68-1.97,6.57-5.15,8.2-9.12,0,0,0,0,0,0,1.52-3.71,1.77-7.72.74-11.59ZM45.16,32.55c-.03.06-.07.12-.1.17-.28.45-.58.89-.9,1.3-.05.06-.09.13-.14.19-.32.41-.66.8-1.01,1.17-.06.06-.11.12-.17.18-.36.37-.73.72-1.12,1.05-.06.05-.13.11-.19.16-.34.28-.69.53-1.04.78,1.08-1.93,1.74-4.41,1.91-7.21,1.28.13,2.49.37,3.57.72,0,.01,0,.02-.02.04-.24.5-.5.98-.78,1.45ZM28.85,40.4c-.13-.02-.26-.04-.4-.06-.17-.03-.34-.05-.51-.09-.13-.02-.27-.05-.4-.08-.17-.04-.33-.07-.49-.11-.13-.03-.27-.07-.4-.1-.16-.04-.32-.09-.49-.14-.13-.04-.26-.08-.39-.12-.16-.05-.32-.11-.48-.17-.13-.05-.26-.1-.39-.15-.16-.06-.31-.13-.47-.2-.13-.06-.25-.11-.38-.17-.15-.07-.31-.15-.46-.23-.12-.06-.25-.12-.37-.19-.15-.08-.3-.17-.45-.25-.12-.07-.24-.14-.36-.21-.15-.09-.3-.19-.44-.29-.11-.07-.23-.15-.34-.22-.01,0-.03-.02-.04-.03.76-.84,1.69-1.66,2.73-2.41,1.55,2.35,3.37,4.17,5.27,5.3-.08,0-.16-.01-.24-.02-.17-.02-.35-.04-.52-.06ZM14.87,27.48c-.65-3.02-.45-6.1.59-9.01,1.26.42,2.66.71,4.14.85.01,2.1.29,4.35.85,6.66l-5.58,1.49ZM16.87,15.47c.03-.06.07-.12.1-.17.28-.45.58-.89.9-1.3.05-.06.09-.13.14-.19.32-.41.66-.8,1.01-1.17.06-.06.11-.12.17-.18.36-.37.73-.72,1.12-1.05.06-.05.13-.11.19-.16.34-.28.69-.53,1.04-.78-1.08,1.93-1.74,4.41-1.91,7.21-1.28-.13-2.49-.37-3.57-.72,0-.01,0-.02.02-.04.24-.5.5-.98.78-1.45ZM33.58,7.67c.07.01.14.02.21.03.38.07.76.15,1.14.24.1.02.19.05.29.08.33.09.66.19.99.3.06.02.11.03.17.05.37.13.73.27,1.1.43.09.04.18.08.27.12.33.15.65.3.97.47.04.02.09.04.13.07.35.19.69.39,1.03.61.09.06.17.11.26.17.1.06.19.14.28.2-.76.84-1.68,1.65-2.71,2.4-1.55-2.34-3.35-4.16-5.24-5.29.04,0,.08,0,.12.01.33.03.67.07,1,.12ZM47.16,20.54c.65,3.02.45,6.1-.59,9.01-1.26-.42-2.66-.71-4.14-.85-.01-2.1-.29-4.35-.85-6.66l5.58-1.49ZM25.72,34.27c1.89-1.17,4.08-2.13,6.43-2.83l2.33,8.68c-2.97.3-6.21-2-8.75-5.84ZM40.77,28.58c-2.38-.07-4.93.21-7.45.82l-1.29-4.8,7.96-2.13c.51,2.12.76,4.18.78,6.12ZM40.73,30.25c-.28,4.6-1.94,8.21-4.66,9.44l-2.33-8.68c2.38-.57,4.76-.83,6.98-.76ZM31.6,23l-1.29-4.8c2.5-.74,4.84-1.77,6.87-3.02.95,1.69,1.76,3.61,2.38,5.69l-7.96,2.13ZM27.55,7.9c.17-.02.34-.03.51-.03,2.83,0,5.85,2.24,8.25,5.87-1.9,1.17-4.09,2.14-6.44,2.84l-2.33-8.68ZM28.28,17.01c-2.38.57-4.76.83-6.98.76.28-4.6,1.94-8.21,4.66-9.44l2.33,8.68ZM21.26,19.43c.23,0,.46.02.7.02,2.17,0,4.47-.3,6.75-.84l1.29,4.81-7.96,2.13c-.51-2.12-.76-4.19-.78-6.13ZM30.43,25.02l1.29,4.8c-2.5.74-4.84,1.77-6.87,3.02-.95-1.69-1.76-3.6-2.38-5.69l7.96-2.13ZM46.73,18.94l-5.57,1.49c-.67-2.28-1.56-4.36-2.6-6.19,1.21-.87,2.28-1.82,3.16-2.8,2.35,2,4.07,4.56,5.01,7.51ZM15.3,29.07l5.58-1.49c.67,2.28,1.56,4.36,2.6,6.19-1.21.87-2.28,1.82-3.16,2.81-2.35-2-4.07-4.56-5.01-7.51Z"/>
      <path d="M40.93,47.97h-7.87l-1.98-2.48c1.82,0,3.66-.24,5.49-.73.44-.12.7-.57.58-1.01s-.57-.7-1.01-.58c-10.56,2.83-21.46-3.46-24.29-14.02-2.83-10.56,3.46-21.46,14.02-24.29.44-.12.7-.57.58-1.01-.12-.44-.57-.7-1.01-.58-11.44,3.07-18.26,14.87-15.19,26.31,2.28,8.5,9.38,14.44,17.58,15.68l-2.18,2.73h-7.87c-2.28,0-4.13,1.85-4.13,4.13,0,.46.37.83.83.83h29.75c.46,0,.83-.37.83-.83,0-2.28-1.85-4.13-4.13-4.13ZM29.36,45.99l1.59,1.98h-3.17l1.59-1.98ZM15.45,51.28c.34-.96,1.26-1.65,2.34-1.65h23.14c1.08,0,2,.69,2.34,1.65H15.45Z"/>
    </g>
  </g>
</svg>