<?xml version="1.0" encoding="UTF-8"?>
<svg id="Layer_1" xmlns="http://www.w3.org/2000/svg" version="1.1" viewBox="0 0 60.02 60.02">
  <!-- Generator: Adobe Illustrator 29.1.0, SVG Export Plug-In . SVG Version: 2.1.0 Build 142)  -->
  <defs>
    <style>
      .st0 {
        fill: none;
      }

      .st1 {
        fill: #231f20;
      }

      .st2 {
        fill-rule: evenodd;
      }
    </style>
  </defs>
  <circle class="st0" cx="29.78" cy="30.01" r="30.01"/>
  <g id="Layer_x5F_1">
    <g>
      <path class="st2" d="M24.35,45.75h0ZM35.19,35.89h0ZM36.14,30.59h0ZM37.11,29.35h0ZM23.43,30.59h0ZM29.17,30.5v3.05l-4.79,2.33c-.24.09-.37.32-.37.58v8.7c0,.23.09.46.34.58l5.07,2.48c.21.09.43.14.64.03,1.71-.81,3.36-1.73,5.1-2.48.24-.12.4-.35.37-.61v-8.7c.03-.23-.09-.46-.34-.58l-4.79-2.33v-3.05c.98-.03,1.95-.12,2.9-.26.55.84,1.86,1.3,2.84.35.34-.29.49-.69.52-1.1.15-.06.31-.12.46-.14.15-.06.27-.12.43-.17l.06.06c1.4,1.35,3.42-.12,3.08-1.56l.58-.4c1.56,1.04,3.57-.84,2.56-2.31.76-.95,1.31-2.02,1.59-3.17,1.92,1.07,3.6,1.61,4.37,1.84.7,13.6-4.21,22.48-10.84,26.57-5.71,3.49-12.64,3.49-18.32,0-6.63-4.09-11.57-12.97-10.87-26.57.76-.23,2.47-.78,4.4-1.84.24,1.15.82,2.22,1.59,3.17-1.01,1.59,1.01,3.29,2.53,2.31l.64.4c-.4,1.73,1.8,2.77,3.05,1.5.18.06.34.12.49.17h0c.15.03.27.09.43.14.03.4.21.81.52,1.1,1.01.95,2.29.49,2.84-.35.98.14,1.95.23,2.93.26ZM25.97,28.17h0ZM23.43,28.17h0ZM21.97,26.84h0ZM18.58,24.62h0ZM40.99,24.62h0ZM37.6,26.84h0ZM36.14,28.17h0ZM33.57,28.17h0ZM33.05,29.12c-2.17.32-4.4.32-6.53,0-.06-.32-.21-.63-.55-.95-.7-.66-1.83-.66-2.56,0-.06.09-.12.14-.15.2-.15-.03-.27-.06-.4-.12h0c-.09-.03-.21-.09-.37-.14.06-.43-.12-.86-.52-1.27-.67-.63-1.71-.69-2.41-.14l-.55-.35c.21-.55.12-1.18-.43-1.73-.52-.46-1.28-.61-1.92-.37-1.07-1.35-1.25-2.42-1.4-3.11,4-2.48,8.43-7.12,7.66-15.19h13.74c-.76,8.07,3.63,12.71,7.63,15.22-.21,1.53-.95,2.45-1.44,3.05-.64-.2-1.4-.03-1.86.4-.52.49-.64,1.15-.46,1.73l-.52.35c-.7-.52-1.77-.46-2.41.14-.4.35-.55.81-.52,1.3l-.76.23c-.06-.06-.12-.12-.18-.2-.7-.63-1.86-.63-2.56,0-.31.32-.49.63-.52.95ZM21.63,5.46c1.04,8.3-4.43,15.13-12.58,17.18-.27.03-.49.26-.49.52h0c-.85,14.35,4.37,23.69,11.39,28.01,6.08,3.78,13.56,3.78,19.66,0,6.99-4.32,12.21-13.66,11.39-27.95,0-.26-.18-.52-.46-.58h0c-8.15-1.99-13.65-8.93-12.61-17.18.03-.35-.24-.66-.61-.66h-15.08c-.37,0-.67.32-.61.66ZM25.11,29c.55.52-.31,1.3-.82.78h0c-.58-.52.27-1.3.82-.78h0ZM35.28,29.78c-.55.52-1.4-.26-.85-.78.24-.23.61-.23.85,0h0c.21.2.21.58,0,.78h0ZM39.28,28.43c-.52.52-1.37-.26-.82-.78h0c.24-.23.61-.23.82,0,.24.2.24.55,0,.78ZM30.4,34.85l3.42,1.67-1.47,1.1-1.95-1.07v-1.7ZM33.02,43.07v-4.5l1.28-.98v6.46l-1.28-.98ZM29.78,37.53l2.02,1.1v4.38l-2.02,1.1-2.02-1.1v-4.38l2.02-1.1ZM25.75,36.53l3.42-1.67v1.7l-1.95,1.07-1.47-1.1ZM25.75,45.14l1.47-1.1,1.95,1.07v1.67l-3.42-1.64ZM26.55,38.57v4.5l-1.31.98v-6.46l1.31.98ZM21.08,28.43c-.55.55-1.37-.29-.82-.78.21-.23.61-.23.82,0h0c.24.2.24.58,0,.78ZM17.69,26.24c-.55.55-1.37-.29-.82-.78.21-.23.61-.23.82,0h0c.24.2.24.55,0,.78ZM42.67,26.24c-.52.52-1.37-.26-.82-.78h0c.24-.23.61-.23.82,0,.24.2.24.55,0,.78ZM30.4,45.11l1.95-1.07,1.47,1.1-3.42,1.64v-1.67Z"/>
      <path class="st1" d="M29.77,54.11c-3.42,0-6.84-.95-9.89-2.84-8.04-4.95-12.22-15.2-11.45-28.13,0-.32.26-.6.6-.64,8.33-2.09,13.46-9.1,12.47-17.03-.03-.19.02-.38.15-.53.14-.17.36-.27.58-.27h15.08c.21,0,.4.08.54.24.14.15.21.36.19.56-1.01,7.99,4.14,15,12.51,17.04.31.07.55.37.55.7,1.05,18.29-7.65,25.72-11.45,28.06-3.06,1.89-6.49,2.84-9.91,2.84ZM22.24,4.92c-.15,0-.3.07-.39.18-.08.1-.12.22-.1.33h0c1.01,8.07-4.2,15.19-12.67,17.32-.22.02-.39.2-.39.4-.76,12.83,3.37,23,11.33,27.91,6.01,3.73,13.49,3.73,19.53,0,3.75-2.32,12.38-9.68,11.33-27.84,0-.22-.15-.42-.36-.46-8.51-2.08-13.73-9.19-12.71-17.31.01-.13-.04-.26-.13-.36-.09-.1-.22-.16-.36-.16h-15.08ZM29.77,52.97c-3.17,0-6.33-.88-9.21-2.65-7.58-4.68-11.56-14.41-10.93-26.68v-.09s.09-.03.09-.03c1.55-.47,3.02-1.09,4.37-1.83l.15-.08.04.17c.22,1.06.75,2.1,1.56,3.12l.06.07-.05.08c-.48.75-.2,1.46.21,1.88.48.48,1.35.76,2.15.25l.07-.04.78.49-.02.09c-.19.83.27,1.42.76,1.69.57.32,1.44.34,2.08-.31l.05-.05.07.02c.18.06.34.12.49.18.11.02.22.06.33.11l.17.07v.08c.03.38.21.75.49,1.01.5.47,1.01.52,1.36.48.51-.06,1-.37,1.29-.81l.04-.07h.08c.97.15,1.95.24,2.92.27h.12v3.26l-4.86,2.37c-.19.07-.3.24-.3.46v8.7c0,.13.03.35.26.46l5.07,2.48c.2.08.37.12.53.03.69-.33,1.37-.67,2.03-1.01,1-.5,2.03-1.03,3.08-1.48.2-.1.31-.28.29-.48v-8.72c.02-.2-.08-.38-.27-.46l-4.87-2.37v-3.25h.12c.98-.03,1.95-.12,2.89-.26h.08s.04.06.04.06c.29.44.79.75,1.32.81.34.03.85-.02,1.33-.48.36-.31.46-.72.48-1.02v-.08s.08-.03.08-.03c.15-.06.31-.12.48-.15.05-.02.12-.05.19-.08.07-.03.14-.06.22-.09l.07-.03.12.11c.58.56,1.33.66,2.01.27.66-.37,1.01-1.07.86-1.71l-.02-.08.72-.5.07.05c.79.53,1.66.24,2.16-.27.41-.42.72-1.15.23-1.86l-.05-.08.06-.07c.77-.96,1.3-2.01,1.56-3.12l.04-.16.14.08c1.37.76,2.83,1.38,4.34,1.83l.08.03v.09c.64,12.29-3.33,22.01-10.89,26.68-2.9,1.77-6.07,2.65-9.24,2.65ZM9.87,23.74c-.61,12.14,3.33,21.75,10.82,26.37,5.68,3.49,12.48,3.49,18.19,0,7.46-4.61,11.39-14.22,10.78-26.37-1.45-.44-2.84-1.03-4.16-1.75-.28,1.06-.79,2.06-1.52,2.99.41.67.3,1.49-.31,2.1-.54.55-1.52.89-2.41.35l-.44.31c.12.72-.28,1.49-1,1.9-.61.34-1.53.44-2.31-.31h0s-.09.04-.14.06c-.07.03-.14.06-.21.09-.14.03-.26.07-.38.12-.04.33-.17.77-.56,1.1-.54.53-1.13.59-1.53.55-.57-.06-1.12-.39-1.45-.85-.88.13-1.79.21-2.72.25v2.86l4.72,2.3c.28.13.44.41.41.7v8.69c.04.29-.14.58-.44.72-1.04.45-2.07.97-3.07,1.47-.66.34-1.35.68-2.03,1.01-.25.14-.51.07-.74-.03l-5.08-2.48c-.26-.12-.41-.37-.41-.69v-8.7c0-.33.17-.6.45-.69l4.71-2.29v-2.86c-.91-.03-1.84-.11-2.75-.25-.34.47-.86.79-1.43.85-.4.05-.99-.01-1.56-.55-.3-.29-.5-.68-.55-1.1h-.03c-.11-.05-.2-.09-.31-.11-.15-.05-.28-.1-.43-.15-.73.69-1.68.65-2.33.3-.7-.39-1.04-1.1-.9-1.88l-.5-.32c-.89.52-1.85.2-2.39-.33-.59-.59-.7-1.41-.3-2.11-.77-.97-1.28-1.98-1.52-2.99-1.3.71-2.71,1.29-4.19,1.75ZM30.27,46.98v-1.94l2.09-1.14,1.7,1.27-3.79,1.82ZM30.52,45.19v1.4l3.05-1.47-1.24-.92-1.82.99ZM29.3,46.98l-3.79-1.82,1.7-1.27,2.09,1.14v1.94ZM25.99,45.12l3.05,1.47v-1.4l-1.82-.99-1.24.92ZM34.43,44.3l-1.53-1.17v-4.62l1.53-1.17v6.96ZM33.15,43l1.03.79v-5.95l-1.03.79v4.37ZM25.11,44.3v-6.95l1.56,1.17v4.62l-1.56,1.17ZM25.36,37.84v5.96l1.06-.79v-4.37l-1.06-.79ZM29.78,44.25l-2.14-1.16v-4.53l2.14-1.16,2.14,1.16v4.53l-2.14,1.16ZM27.89,42.94l1.89,1.03,1.89-1.03v-4.23l-1.89-1.03-1.89,1.03v4.23ZM32.36,37.77l-2.09-1.14v-1.97l3.78,1.85-1.69,1.27ZM30.52,36.48l1.82.99,1.24-.92-3.06-1.49v1.43ZM27.21,37.77l-1.69-1.27,3.78-1.85v1.97l-2.09,1.14ZM25.99,36.55l1.24.92,1.82-.99v-1.43l-3.06,1.49ZM34.87,30.08c-.21,0-.42-.1-.56-.25-.22-.23-.3-.61.02-.92.29-.28.73-.28,1.03,0,.13.12.2.29.2.48s-.07.36-.2.48h0c-.15.15-.33.21-.5.21ZM34.85,28.96c-.12,0-.24.05-.34.14-.21.2-.15.43-.01.57.17.18.46.25.7.03h0c.08-.07.12-.18.12-.3s-.04-.23-.12-.3c-.1-.09-.22-.14-.34-.14ZM24.68,30.08c-.18,0-.35-.07-.48-.21-.19-.17-.27-.38-.22-.6.05-.24.25-.45.51-.53.25-.08.51-.02.71.17h0c.18.17.25.39.2.61-.06.24-.27.46-.53.53-.06.02-.12.03-.19.03ZM24.7,28.96c-.06,0-.1.01-.14.02-.17.05-.3.19-.33.34-.03.13.02.26.14.37.17.17.34.15.43.12.17-.05.31-.19.35-.35.03-.13-.01-.26-.13-.37h0c-.11-.11-.23-.14-.33-.14ZM29.77,29.48c-1.1,0-2.21-.08-3.27-.24h-.09s-.02-.1-.02-.1c-.06-.33-.23-.62-.51-.88-.66-.62-1.71-.62-2.4,0-.01.02-.04.06-.07.09-.03.03-.05.06-.06.08l-.04.08-.09-.02c-.17-.03-.3-.06-.43-.12-.04-.01-.1-.04-.18-.07-.05-.02-.12-.05-.18-.07l-.09-.04v-.1c.07-.39-.09-.78-.47-1.16-.62-.59-1.59-.64-2.25-.13l-.07.05-.71-.45.04-.1c.22-.56.08-1.12-.4-1.6-.47-.42-1.19-.56-1.79-.35l-.08.03-.06-.07c-1.02-1.3-1.25-2.34-1.4-3.04l-.05-.21.08-.05c3.89-2.41,8.37-6.98,7.61-15.07v-.14s14,0,14,0v.14c-.78,8.08,3.68,12.67,7.56,15.1l.07.04v.08c-.23,1.58-1.01,2.54-1.47,3.12l-.05.07-.08-.03c-.59-.18-1.31-.03-1.74.38-.45.42-.61,1.02-.42,1.6l.03.09-.67.45-.07-.05c-.65-.48-1.66-.42-2.25.13-.35.3-.51.71-.48,1.2v.1s-.92.28-.92.28l-.05-.05c-.06-.05-.13-.12-.2-.22-.63-.57-1.73-.57-2.38.02-.29.3-.45.59-.48.87v.1s-.11.01-.11.01c-1.08.16-2.19.24-3.3.24ZM26.62,29.01c2.06.3,4.24.3,6.32,0,.06-.3.24-.61.54-.93.76-.69,1.98-.69,2.74,0,.05.07.09.11.13.15l.6-.18c0-.52.19-.97.57-1.3.66-.62,1.74-.71,2.5-.2l.37-.25c-.17-.64.02-1.3.52-1.77.47-.45,1.24-.63,1.9-.46.47-.58,1.13-1.44,1.34-2.85-3.9-2.47-8.34-7.08-7.63-15.15h-13.47c.71,8.08-3.75,12.68-7.66,15.12v.04c.15.66.37,1.65,1.31,2.86.67-.21,1.43-.04,1.96.43.52.52.7,1.16.5,1.77l.39.25c.75-.53,1.81-.45,2.5.2.4.41.59.85.57,1.28.04.01.07.03.1.04.07.03.12.05.17.07.1.05.19.07.3.1.01-.01.02-.03.03-.04.02-.03.05-.06.07-.09.8-.73,2-.73,2.75-.02.3.28.48.58.57.93ZM20.68,28.73c-.06,0-.12,0-.19-.03-.25-.07-.46-.29-.52-.54-.05-.23.02-.44.21-.61.23-.25.75-.26,1,0,.13.11.22.29.22.47s-.08.36-.22.48c-.14.14-.31.21-.49.21ZM20.67,27.6c-.12,0-.24.05-.32.13-.16.14-.16.28-.14.37.04.16.18.31.35.36.11.03.27.03.44-.13h0c.09-.08.14-.19.14-.3s-.05-.22-.14-.29c-.09-.1-.21-.14-.33-.14ZM38.89,28.72c-.06,0-.12,0-.19-.03-.26-.07-.47-.28-.53-.53-.05-.22.02-.44.2-.61.15-.14.34-.22.53-.21.18,0,.35.08.47.21.13.11.21.27.22.44,0,.19-.07.37-.22.51-.14.14-.31.21-.48.21ZM38.88,27.6c-.12,0-.24.05-.34.14-.12.11-.16.24-.13.37.04.16.18.3.35.35.09.03.26.04.43-.12h0c.1-.09.15-.21.14-.32,0-.1-.05-.2-.14-.27-.09-.09-.19-.14-.31-.14,0,0-.01,0-.02,0ZM17.29,26.54c-.06,0-.12,0-.19-.03-.25-.07-.46-.29-.52-.54-.05-.23.02-.44.21-.6.23-.25.75-.26,1,0,.13.11.21.27.22.44,0,.19-.07.37-.22.51-.14.14-.31.21-.49.21ZM17.28,25.41c-.13,0-.24.05-.32.13-.15.14-.16.28-.14.37.04.16.18.31.35.36.11.03.28.04.44-.13h0c.1-.09.15-.21.14-.32,0-.1-.05-.2-.14-.27-.09-.1-.21-.14-.33-.14ZM42.27,26.53c-.06,0-.12,0-.18-.03-.26-.07-.47-.28-.53-.53-.05-.22.02-.44.2-.61.15-.14.34-.22.53-.21.18,0,.35.08.47.21.13.11.21.27.22.44,0,.19-.07.37-.22.51-.14.14-.3.21-.48.21ZM42.27,25.41c-.12,0-.24.05-.34.14-.12.11-.16.24-.13.37.04.16.18.3.35.35.09.02.26.04.42-.12h0c.1-.09.15-.21.14-.32,0-.1-.05-.2-.14-.27-.09-.09-.19-.14-.31-.14h-.02Z"/>
    </g>
  </g>
</svg>